<svg version="1.1" id="Layer_1" xmlns="http://www.w3.org/2000/svg" xmlns:xlink="http://www.w3.org/1999/xlink" x="0px" y="0px" viewBox="0 0 500 500" style="width: 181px;" xml:space="preserve" data-imageid="marketing-1-53" imageName="Marketing 1" class="illustrations_image">
<style type="text/css">
	.st0_marketing-1-53{fill:#9FD32D;}
	.st1_marketing-1-53{opacity:0.32;fill:url(#SVGID_1_);enable-background:new    ;}
	.st2_marketing-1-53{opacity:0.32;fill:url(#SVGID_00000053505774293441795630000005094868255647377816_);enable-background:new    ;}
	.st3_marketing-1-53{opacity:0.32;fill:url(#SVGID_00000162333204658074968950000011860650715911984030_);enable-background:new    ;}
	.st4_marketing-1-53{fill:#68E1FD;}
	.st5_marketing-1-53{opacity:0.27;enable-background:new    ;}
	.st6_marketing-1-53{opacity:0.51;fill:#FFFFFF;enable-background:new    ;}
	.st7_marketing-1-53{fill:#CE4242;}
	.st8_marketing-1-53{fill:#FFFFFF;}
	.st9_marketing-1-53{fill:#F7D600;}
	.st10_marketing-1-53{opacity:0.82;fill:#174399;enable-background:new    ;}
	.st11_marketing-1-53{fill:#F9C882;}
	.st12_marketing-1-53{fill:#174399;}
	.st13_marketing-1-53{fill:#F7931E;}
</style>
<path id="Base_marketing-1-53" class="st0_marketing-1-53" d="M260.6,416.5L468.2,300c4.8-2.7,6.5-8.7,3.8-13.5c-0.8-1.5-2-2.7-3.4-3.6L267.3,158.1&#10;&#9;c-3.1-1.9-7-2-10.2-0.1L37.4,285.5c-4.7,2.8-6.4,8.8-3.6,13.6c0.9,1.5,2.1,2.7,3.6,3.6l195.9,113.7&#10;&#9;C241.7,421.2,252.1,421.3,260.6,416.5z"/>
<g id="Shadow_marketing-1-53">
	
		<linearGradient id="SVGID_1_-marketing-1-53" gradientUnits="userSpaceOnUse" x1="-3171.7812" y1="149.5006" x2="-3068.2112" y2="216.1707" gradientTransform="matrix(1 0 0 -1 3491.02 502)">
		<stop offset="0" style="stop-color:#FFFFFF;stop-opacity:0"/>
		<stop offset="0.99" style="stop-color:#006837"/>
	</linearGradient>
	<path class="st1_marketing-1-53" d="M423.8,291c-0.2,0.2-0.5,0.4-0.7,0.5c-27.5,11.9-55.8,21.8-84,31.8c-11.4,4-23,7.9-34.3,12.2&#10;&#9;&#9;c5.7,3.8,11.8,7.2,18.1,10c1.6,0.7,19.9,11.8,21.8,12.5l86.3-51L423.8,291z"/>
	
		<linearGradient id="SVGID_00000114771443249329242260000010998832958829236114_-marketing-1-53" gradientUnits="userSpaceOnUse" x1="-3351.7849" y1="135.4977" x2="-3248.2148" y2="202.1577" gradientTransform="matrix(1 0 0 -1 3491.02 502)">
		<stop offset="0" style="stop-color:#FFFFFF;stop-opacity:0"/>
		<stop offset="0.99" style="stop-color:#006837"/>
	</linearGradient>
	<path style="opacity:0.32;fill:url(#SVGID_00000114771443249329242260000010998832958829236114_);enable-background:new    ;" d="&#10;&#9;&#9;M147.7,367.1c1.6,0.7,19.9,11.8,21.8,12.5l86.3-51l-9.1-20.5l-42.8-12.5l-91,50.8C128.2,355.3,131.6,359.7,147.7,367.1z"/>
	
		<linearGradient id="SVGID_00000051368100169327006580000004668247092172614285_-marketing-1-53" gradientUnits="userSpaceOnUse" x1="-3286.4639" y1="98.5692" x2="-3227.7639" y2="136.3592" gradientTransform="matrix(1 0 0 -1 3491.02 502)">
		<stop offset="0" style="stop-color:#FFFFFF;stop-opacity:0"/>
		<stop offset="0.99" style="stop-color:#006837"/>
	</linearGradient>
	<path style="opacity:0.32;fill:url(#SVGID_00000051368100169327006580000004668247092172614285_);enable-background:new    ;" d="&#10;&#9;&#9;M219.4,405.2c0.8,0.4,10,5.9,10.9,6.2l43.1-25.4l-4.5-10.3l-34-13.1l-48,25.3C194.6,392.2,211.4,401.5,219.4,405.2z"/>
</g>
<g id="Announcer_marketing-1-53">
	<path class="st4_marketing-1-53 targetColor" d="M434.2,296.2V192.6c0-4.6-3.1-9-7.7-9.6c-4.9-0.7-9.5,2.7-10.2,7.6c-0.1,0.4-0.1,0.9-0.1,1.3v107.3&#10;&#9;&#9;c0,4.5,3.6,8.1,8.1,8.1c1.6,0,3.2-0.5,4.6-1.4l0.2-0.1C432.3,303.6,434.2,300,434.2,296.2z" style="fill: rgb(104, 225, 253);"/>
	<path class="st5_marketing-1-53" d="M434.2,230v-37.4c0-4.6-3.1-9-7.7-9.6c-4.9-0.7-9.5,2.7-10.2,7.6c-0.1,0.4-0.1,0.9-0.1,1.3v59.7&#10;&#9;&#9;C422.9,244.9,428.9,237.7,434.2,230z"/>
	<path class="st4_marketing-1-53 targetColor" d="M332.1,186.7c0,0,90.8-5.8,96.6-3.1s8.1,12.3,6,25.7c-2.2,13.2-45.5,67.4-45.5,67.4" style="fill: rgb(104, 225, 253);"/>
	<path class="st6_marketing-1-53" d="M394.4,214.8c13.2-8.1,26.9-15.1,40.2-23.1c-0.9-3.3-2.3-5.8-4.3-7.3c-25.3,12.4-50.2,25.5-75.4,38.1l7.6,12&#10;&#9;&#9;C373.3,228,383.8,221.3,394.4,214.8z"/>
	<path class="st6_marketing-1-53" d="M391.1,226.1c14.7-9.3,30-17.8,44.3-27.6c0-0.6,0-1.2-0.1-1.8c-12.8,7.6-26,14.4-38.6,22.2&#10;&#9;&#9;c-10.6,6.5-21,13.2-31.7,19.6l1.9,3C375.1,236.4,383.1,231.3,391.1,226.1z"/>
	<path class="st7_marketing-1-53" d="M304,215.8c0.3-0.9,9.5-43.2,51.5-25.2c37.9,16.3,39.1,64.6,36.5,76.4c-2.1,9.6-11.9,22.7-30.9,27.5"/>
	<path class="st5_marketing-1-53" d="M304,215.8c0.3-0.9,9.5-43.2,51.5-25.2c37.9,16.3,39.1,64.6,36.5,76.4c-2.1,9.6-11.9,22.7-30.9,27.5"/>
	
		<ellipse transform="matrix(0.9176 -0.3975 0.3975 0.9176 -68.3226 156.6504)" class="st7_marketing-1-53" cx="343.7" cy="243.1" rx="38.7" ry="54.4"/>
	<path class="st8_marketing-1-53" d="M384.5,245.6l-41.1,10.8l-9-19.1l37.2-23.2C371.6,214.1,382.2,230.3,384.5,245.6z"/>
	
		<ellipse transform="matrix(0.8915 -0.4531 0.4531 0.8915 -74.8387 180.5445)" class="st9_marketing-1-53" cx="339.5" cy="246.5" rx="8.5" ry="10.6"/>
	<path class="st7_marketing-1-53" d="M361.9,148.8l9.2,12.6c3.2,4.4,10-0.6,6.8-5l-9.2-12.6C365.5,139.5,358.7,144.4,361.9,148.8z"/>
	<path class="st7_marketing-1-53" d="M395.3,131.3l-3.2,20.7c-0.8,5.3,7.5,6.6,8.3,1.3l3.2-20.7C404.4,127.2,396.1,125.9,395.3,131.3z"/>
	<path class="st7_marketing-1-53" d="M423.1,155.2l-10.8,8.4c-4.3,3.3,0.7,10.1,5,6.8l10.8-8.4C432.3,158.6,427.4,151.9,423.1,155.2z"/>
</g>
<g id="E-Mails_marketing-1-53">
	<path class="st4_marketing-1-53 targetColor" d="M41.1,170.4v46.3c0,1.5,1.3,2.7,2.8,2.7c0.4,0,0.9-0.1,1.2-0.3l59.6-34.4c1.6-0.9,2.6-2.6,2.6-4.5V137&#10;&#9;&#9;c0-0.8-0.7-1.5-1.5-1.5c-0.2,0-0.5,0.1-0.7,0.2L41.1,170.4z" style="fill: rgb(104, 225, 253);"/>
	<path class="st10_marketing-1-53" d="M106.4,135.6c-0.3-0.1-0.7-0.1-1,0L41,170.4c0,0,36.2,6,40.2,4.8c3.6-1.1,21.7-32.9,25.4-39.4L106.4,135.6z"/>
	<path class="st4_marketing-1-53 targetColor" d="M86.2,189.4v46.3c0,1.5,1.2,2.7,2.7,2.7c0.4,0,0.9-0.1,1.3-0.3l59.6-34.4c1.6-0.9,2.6-2.6,2.6-4.5v-43.1&#10;&#9;&#9;c0-0.8-0.7-1.5-1.5-1.5c-0.2,0-0.5,0.1-0.7,0.2L86.2,189.4z" style="fill: rgb(104, 225, 253);"/>
	<path class="st10_marketing-1-53" d="M151.5,154.6c-0.3-0.1-0.7-0.1-1,0l-64.3,34.8c0,0,36.2,6,40.2,4.7c3.6-1.1,21.7-32.9,25.4-39.4&#10;&#9;&#9;C151.7,154.7,151.6,154.7,151.5,154.6z"/>
</g>
<g id="Character_marketing-1-53">
	<path class="st11_marketing-1-53" d="M176.1,127.2c0.8,0.8,1.7,1.6,2.5,2.4c-0.4-0.9-0.4-1.9-0.1-2.8c0.3-0.9,1.2-1.4,2.1-1.2&#10;&#9;&#9;c0.4,0.1,0.7,0.4,1,0.7c1.9,2.8,3.7,5.6,5.6,8.3c0.1-0.2,0.1-0.4,0.2-0.7c0.4-1.2,0.8-3.1,1.7-4c1.8-1.9,3.1,0.5,2.9,2.7&#10;&#9;&#9;c-0.2,2.9-1.4,5.6-0.4,8.6c0.5,1.6,2,2.8,3.1,4s2.5,2.5,3.7,3.7s-0.1,3.1-1.6,2.8c0.4,0.8,0.1,1.8-0.7,2.2&#10;&#9;&#9;c-0.3,0.1-0.6,0.2-0.9,0.2c0,1.4-1.7,2.7-2.8,1.4c-2.6-3.4-5.6-6.5-8.9-9.2c-3.5-2.2-6.9-4.6-10.2-7c-1.7-1.2-0.1-4.1,1.7-2.9&#10;&#9;&#9;l0.3,0.2l-2.9-2.4c-1.4-1.2,0.5-3.8,2-2.6l0.4,0.3l0,0l0.1,0.1l1,0.8c-0.4-0.5-0.8-0.9-1.2-1.4c-0.8-0.9-1.5-1.6-1.5-2.8&#10;&#9;&#9;c0-0.9,0.7-1.7,1.6-1.8C175.3,126.7,175.8,126.8,176.1,127.2z"/>
	<path d="M186.3,136.2c0.3-0.3,0.9,0.2,0.5,0.5c-1.6,1.6-2.1,3.9-1.4,6.1c0.1,0.4-0.6,0.6-0.7,0.2&#10;&#9;&#9;C183.9,140.6,184.5,138,186.3,136.2z"/>
	<path d="M178.6,129c2,2,3.9,4,5.8,6.1c0.3,0.4-0.2,0.9-0.5,0.5c-1.8-2.1-3.8-4.2-5.8-6.1C177.8,129.1,178.3,128.6,178.6,129z"/>
	<path d="M175.1,131.3l6.8,5.4c0.4,0.3-0.2,0.8-0.5,0.5l-6.8-5.4C174.2,131.6,174.7,131,175.1,131.3z"/>
	<path d="M174.6,135.4c1.9,1.3,3.9,2.5,5.9,3.7c0.4,0.2,0,0.9-0.4,0.6c-2-1.2-4-2.4-5.9-3.7C173.8,135.8,174.2,135.1,174.6,135.4z"/>
	<path class="st11_marketing-1-53" d="M313.4,138.4c-1.1,0.3-2.2,0.6-3.3,0.9c0.8-0.6,1.3-1.4,1.5-2.4c0.2-0.9-0.3-1.8-1.3-2.1&#10;&#9;&#9;c-0.4-0.1-0.9,0-1.3,0.2c-3,1.5-6,3-9,4.5c0-0.2,0.1-0.4,0.2-0.7c0.3-1.2,0.9-3.1,0.5-4.3c-0.6-2.5-2.9-1.1-3.9,0.9&#10;&#9;&#9;c-1.3,2.7-1.5,5.5-3.9,7.6c-1.2,1.1-3.1,1.4-4.7,1.9c-1.7,0.5-3.4,0.9-5.1,1.4s-1.4,2.8,0,3.2c-0.8,0.5-1,1.5-0.5,2.3&#10;&#9;&#9;c0.2,0.2,0.4,0.4,0.6,0.6c-0.8,1.2,0.1,3.2,1.7,2.5c4-1.6,8.1-2.8,12.3-3.6c4.1-0.2,8.2-0.6,12.4-1c2.1-0.2,2.2-3.5,0-3.4h-0.3&#10;&#9;&#9;l3.7-0.6c1.9-0.3,1.4-3.5-0.4-3.3l-0.5,0.1l0,0h-0.1l-1.2,0.2l1.8-0.6c1.1-0.4,2.1-0.6,2.7-1.7c0.4-0.8,0.1-1.9-0.7-2.3&#10;&#9;&#9;C314.2,138.3,313.8,138.3,313.4,138.4z"/>
	<path d="M300,141.2c-0.1-0.2-0.3-0.3-0.5-0.3c-0.2,0.1-0.3,0.3-0.3,0.5c0.6,2.2-0.1,4.5-1.8,5.9c-0.4,0.3,0.2,0.9,0.5,0.5&#10;&#9;&#9;C299.9,146.2,300.7,143.6,300,141.2z"/>
	<path d="M310.3,138.7c-2.7,0.7-5.4,1.5-8,2.5c-0.5,0.2-0.3,0.9,0.2,0.7c2.7-0.9,5.3-1.8,8-2.5c0.2-0.1,0.3-0.3,0.3-0.5&#10;&#9;&#9;C310.7,138.7,310.5,138.6,310.3,138.7z"/>
	<path d="M312.1,142.5l-8.5,1.3c-0.5,0.1-0.3,0.8,0.2,0.7l8.6-1.3C312.8,143.1,312.6,142.4,312.1,142.5z"/>
	<path d="M310.6,146.3c-2.3,0.1-4.6,0.2-6.9,0.3c-0.5,0-0.5,0.8,0,0.7c2.3-0.1,4.6-0.2,6.9-0.3C311.1,147,311.1,146.3,310.6,146.3z"/>
	<path d="M205,282c0,0-0.2,10.9-1.5,12.6s-12.8,7.8-13.4,10.6s1.4,6.8,6.9,5.3s18.6-10,18.6-10v-23.7"/>
	<path d="M248.9,294.4l1.4,11.9c0,0-5,18.3-3,20.5s9.3,4.6,12.1,0s-1.2-21.7-1.2-21.7l-0.2-12.9"/>
	<path class="st12_marketing-1-53" d="M222.6,168.8c0,0-14.2,57.7-14.9,66.6s-4.9,51.9-4.9,51.9s13.5,6,22.6,3l7.1-54.3l8-56.9&#10;&#9;&#9;C240.6,179.1,226,164.7,222.6,168.8z"/>
	<path class="st12_marketing-1-53" d="M249.9,182.4c10,42.6,11.2,74.8,16.3,112c0,0-21.8,7.9-26.6,0.2c-3.2-38-5.9-76-7.1-114.1L249.9,182.4z"/>
	<path class="st7_marketing-1-53" d="M289.8,137.3c-9.1,3.5-20,6.6-27.5,5.6c-9.4-1.3-18.6-3.5-27.4-6.8c-1.2-0.4-14.2-5.4-19-1.1&#10;&#9;&#9;s-3.5,18.3-3.5,18.3l-17.6-15.2c-6.5,2.3-9.1,9.1-9.7,15.8l0.7,0.7c1.2,1.5,2.5,3,3.8,4.4c5.8,6.5,12.4,13.9,20.8,16.8&#10;&#9;&#9;c3.3,1,6.9,0.7,10.1-0.6c2.5-0.9,6.2-4,8.9-3c0.7,0.3,1.4,0.8,2.1,0.7c2-0.2,4.7-3.5,6.6-4.5c5.3-2.7,11.4-3.1,17.3-3.4&#10;&#9;&#9;c6.3-0.2,12.6-0.9,18.9-2.1c1.8-0.4,21.3-5.3,21.7-4.5C292.2,150.5,291.3,145.8,289.8,137.3z"/>
	<path class="st11_marketing-1-53" d="M221.3,124.2c-1.3,6.1-0.2,14.5,6.3,15.5c8.4,1.2,10.5-4.5,10-11.5c-0.4-5.6-3.3-14.3-10.8-11.8&#10;&#9;&#9;c-1.9,0.7-3.4,2.1-4.2,3.9C222,121.6,221.6,122.9,221.3,124.2z"/>
	<path d="M220.9,125.6c-3.5-1.8-5.5-5.5-5.2-9.3c0.4-3.7,4-8.5,8.2-6.7c2.9,1.2,2.1,1.3,2.1,1.3s1.6-2.3,5.5-2s4.7,2.8,4.7,2.8&#10;&#9;&#9;s4.5,1.5,5.7,4.4c1.4,3.3-1.7,13.1-3.2,15.8s-2.3-2.8-2.9-5.1c-0.4-1.6-1.6-3.6-3.3-4.1c-2.4-0.7-3.7,1.5-5.6,2.4&#10;&#9;&#9;S222.8,126.5,220.9,125.6z"/>
	<path class="st7_marketing-1-53" d="M236.7,184.8c5.3-0.3,8.2-0.4,13.2-2.4l0.9-27.9l-33.6,15.8c0,0,1.3,6.8,2.7,12.9&#10;&#9;&#9;C225.3,184.7,231,185.3,236.7,184.8z"/>
	<path d="M219.6,182.5c-2-8-3.2-16.1-3.8-24.3c-0.1-1-1.7-1-1.6,0c0.6,8.3,1.9,16.6,3.9,24.7C218.3,183.9,219.9,183.5,219.6,182.5z"/>
	<path d="M221.7,133.6c-2.3,0.3-4.4-1.3-4.7-3.6c-0.3-2.3,1.3-4.4,3.6-4.7c2.3-0.3,4.4,1.3,4.7,3.6c0,0.2,0,0.4,0,0.5&#10;&#9;&#9;C225.4,131.6,223.8,133.5,221.7,133.6z M221.7,125.8c-2-0.3-3.9,1.1-4.2,3.1s1.1,3.9,3.1,4.2s3.9-1.1,4.2-3.1c0-0.2,0-0.4,0-0.5&#10;&#9;&#9;C224.9,127.6,223.5,126,221.7,125.8z"/>
	<path d="M230.5,134.5c-2.3,0.3-4.4-1.3-4.7-3.6c-0.3-2.3,1.3-4.4,3.6-4.7c2.3-0.3,4.4,1.3,4.7,3.6c0,0.2,0,0.4,0,0.6&#10;&#9;&#9;C234.3,132.5,232.7,134.4,230.5,134.5z M230.5,126.7c-2-0.3-3.9,1.1-4.2,3.1c-0.3,2,1.1,3.9,3.1,4.2c2,0.3,3.9-1.1,4.2-3.1&#10;&#9;&#9;c0-0.2,0-0.4,0-0.6C233.8,128.5,232.4,126.9,230.5,126.7z"/>
	<polygon points="227.1,130.6 225,130.4 225.1,129.9 227.2,130.1 &#9;"/>
	<rect x="233.3" y="128.5" transform="matrix(0.7775 -0.6289 0.6289 0.7775 -28.4608 177.0598)" width="5.3" height="0.5"/>
</g>
<g id="Coin_Stack_marketing-1-53">
	<ellipse class="st13_marketing-1-53" cx="244.8" cy="377.8" rx="30.4" ry="17.8"/>
	<polygon class="st13_marketing-1-53" points="214.4,377.8 214.4,372.6 217.8,376.8 &#9;"/>
	<polygon class="st13_marketing-1-53" points="275.2,372.6 275.2,377.8 271.3,377.8 274.1,373.7 &#9;"/>
	<ellipse class="st9_marketing-1-53" cx="244.8" cy="372.7" rx="30.4" ry="17.8"/>
	<path class="st13_marketing-1-53" d="M260.2,370.3c0.2,0.4,0.3,0.9,0.2,1.4l-0.1,0.5h-5.5c0-0.2,0.1-0.3,0.1-0.5c0-0.4-0.1-0.7-0.3-1&#10;&#9;&#9;c-0.3-0.5-0.8-1-1.3-1.2c-0.8-0.4-1.7-0.7-2.6-0.7c-0.8-0.1-1.7,0.1-2.5,0.4c-0.8,0.3-1.1,0.8-0.9,1.3c0.3,0.7,0.7,1.3,1.2,1.7&#10;&#9;&#9;c0.6,0.6,1.2,1.3,1.7,1.9c0.5,0.6,0.6,1.4,0.3,2.1c-0.6,1-1.6,1.8-2.7,2.1c-1.9,0.8-3.9,1.2-5.9,1.2c-2.2,0.1-4.3-0.2-6.4-0.9&#10;&#9;&#9;l-3.2,1.4l-3.7-1.8l3.1-1.3c-0.6-0.4-1.1-0.8-1.5-1.3c-0.3-0.4-0.6-0.8-0.7-1.2c-0.1-0.3-0.2-0.7-0.2-1c0-0.2,0-0.5,0.1-0.7&#10;&#9;&#9;l0.1-0.3h5.6c-0.1,0.2-0.1,0.4-0.1,0.6c0,0.5,0.2,0.9,0.4,1.3c0.4,0.7,1.1,1.2,1.8,1.6c1,0.5,2.1,0.8,3.2,0.8c1,0.1,2.1-0.1,3-0.5&#10;&#9;&#9;c0.8-0.3,1.1-0.8,0.9-1.3c-0.3-0.7-0.7-1.3-1.2-1.7c-0.6-0.6-1.2-1.2-1.7-1.9c-0.5-0.6-0.6-1.4-0.2-2.1c0.7-1,1.7-1.8,2.8-2.1&#10;&#9;&#9;c1.8-0.7,3.7-1.1,5.6-1.1c2-0.1,4.1,0.3,6,0.9l3.2-1.4l3.5,1.9l-3.2,1.4C259.5,369,259.9,369.6,260.2,370.3z"/>
	<path class="st13_marketing-1-53" d="M244.9,390.8c-16,0-28.5-7.9-28.5-17.9s12.5-17.9,28.5-17.9s28.5,7.9,28.5,17.9S260.8,390.8,244.9,390.8z&#10;&#9;&#9; M244.9,360.9c-12.2,0-22.5,5.5-22.5,11.9s10.3,11.9,22.5,11.9c12.2,0,22.5-5.5,22.5-11.9S257,360.9,244.9,360.9z"/>
	<ellipse class="st13_marketing-1-53" cx="244.8" cy="368" rx="30.4" ry="17.8"/>
	<polygon class="st13_marketing-1-53" points="214.4,368 214.4,362.9 217.8,367 &#9;"/>
	<polygon class="st13_marketing-1-53" points="275.2,362.9 275.2,368 271.3,368 274.1,363.9 &#9;"/>
	<ellipse class="st9_marketing-1-53" cx="244.8" cy="362.9" rx="30.4" ry="17.8"/>
	<path class="st13_marketing-1-53" d="M260.2,360.5c0.2,0.4,0.3,0.9,0.2,1.4l-0.1,0.5h-5.5c0-0.2,0.1-0.3,0.1-0.5c0-0.4-0.1-0.7-0.3-1&#10;&#9;&#9;c-0.3-0.5-0.8-1-1.3-1.2c-0.8-0.4-1.7-0.7-2.6-0.7c-0.8-0.1-1.7,0.1-2.5,0.4c-0.8,0.3-1.1,0.8-0.9,1.3c0.3,0.7,0.7,1.2,1.2,1.7&#10;&#9;&#9;c0.6,0.6,1.2,1.3,1.7,1.9c0.5,0.6,0.6,1.4,0.3,2.1c-0.6,1-1.6,1.8-2.7,2.1c-1.9,0.8-3.9,1.2-5.9,1.2c-2.2,0.1-4.3-0.2-6.4-0.9&#10;&#9;&#9;l-3.2,1.4l-3.7-1.8l3.1-1.3c-0.6-0.4-1.1-0.8-1.5-1.3c-0.3-0.4-0.6-0.8-0.7-1.2c-0.1-0.3-0.2-0.7-0.2-1c0-0.2,0-0.5,0.1-0.7&#10;&#9;&#9;l0.1-0.3h5.6c-0.1,0.2-0.1,0.4-0.1,0.6c0,0.5,0.2,0.9,0.4,1.3c0.4,0.7,1.1,1.2,1.8,1.6c1,0.5,2.1,0.8,3.2,0.8c1,0.1,2.1-0.1,3-0.5&#10;&#9;&#9;c0.8-0.3,1.1-0.8,0.9-1.3c-0.3-0.7-0.7-1.3-1.2-1.7c-0.6-0.6-1.2-1.2-1.7-1.9c-0.5-0.6-0.6-1.4-0.2-2.1c0.7-1,1.7-1.8,2.8-2.1&#10;&#9;&#9;c1.8-0.7,3.7-1.1,5.6-1.1c2-0.1,4.1,0.3,6,0.9l3.2-1.4l3.5,1.9l-3.2,1.4C259.5,359.2,259.9,359.8,260.2,360.5z"/>
	<path class="st13_marketing-1-53" d="M244.9,379c-14.6,0-26.5-7.1-26.5-15.9s11.9-15.9,26.5-15.9s26.5,7.1,26.5,15.9S259.5,379,244.9,379z&#10;&#9;&#9; M244.9,349.1c-13.5,0-24.5,6.2-24.5,13.9s11,13.9,24.5,13.9s24.5-6.2,24.5-13.9S258.4,349.1,244.9,349.1z"/>
	<ellipse class="st13_marketing-1-53" cx="232.9" cy="360.5" rx="30.4" ry="17.8"/>
	<polygon class="st13_marketing-1-53" points="202.6,360.5 202.6,355.4 205.9,359.5 &#9;"/>
	<polygon class="st13_marketing-1-53" points="263.3,355.4 263.3,360.5 259.4,360.5 262.3,356.4 &#9;"/>
	<ellipse class="st9_marketing-1-53" cx="232.9" cy="355.4" rx="30.4" ry="17.8"/>
	<path class="st13_marketing-1-53" d="M248.3,353c0.2,0.4,0.3,0.9,0.2,1.4l-0.1,0.5h-5.5c0.1-0.2,0.1-0.3,0.1-0.5c0-0.4-0.1-0.7-0.3-1&#10;&#9;&#9;c-0.3-0.5-0.8-1-1.3-1.2c-0.8-0.4-1.7-0.7-2.6-0.7c-0.8-0.1-1.7,0.1-2.5,0.4c-0.8,0.3-1.1,0.8-0.9,1.3c0.3,0.7,0.7,1.3,1.2,1.7&#10;&#9;&#9;c0.6,0.6,1.2,1.3,1.7,1.9c0.5,0.6,0.6,1.4,0.3,2.1c-0.6,1-1.6,1.8-2.7,2.1c-1.9,0.8-3.9,1.2-5.9,1.2c-2.2,0.1-4.4-0.2-6.4-0.9&#10;&#9;&#9;l-3.2,1.4l-3.7-1.8l3.1-1.3c-0.6-0.4-1.1-0.8-1.5-1.3c-0.3-0.4-0.6-0.8-0.7-1.2c-0.1-0.3-0.2-0.7-0.2-1c0-0.2,0-0.5,0.1-0.7&#10;&#9;&#9;l0.1-0.3h5.5c-0.1,0.2-0.1,0.4-0.1,0.6c0,0.5,0.2,0.9,0.4,1.3c0.4,0.7,1.1,1.2,1.8,1.6c1,0.5,2.1,0.8,3.2,0.8c1,0.1,2.1-0.1,3-0.5&#10;&#9;&#9;c0.8-0.3,1.1-0.8,0.9-1.3c-0.3-0.7-0.7-1.3-1.2-1.7c-0.6-0.6-1.2-1.2-1.7-1.9c-0.5-0.6-0.6-1.4-0.2-2.1c0.7-1,1.7-1.8,2.8-2.1&#10;&#9;&#9;c1.8-0.7,3.7-1.1,5.6-1.1c2-0.1,4.1,0.3,6,0.9l3.2-1.4l3.5,1.9l-3.2,1.4C247.6,351.7,248,352.3,248.3,353z"/>
	<path class="st13_marketing-1-53" d="M233,371.5c-14.6,0-26.5-7.1-26.5-15.9s11.9-15.9,26.5-15.9s26.5,7.1,26.5,15.9S247.6,371.5,233,371.5z&#10;&#9;&#9; M233,341.7c-13.5,0-24.5,6.2-24.5,13.9s11,13.9,24.5,13.9s24.5-6.2,24.5-13.9S246.5,341.7,233,341.7L233,341.7z"/>
</g>
</svg>