<svg id="_0528_seo" xmlns="http://www.w3.org/2000/svg" xmlns:xlink="http://www.w3.org/1999/xlink" viewBox="0 0 500 500" data-imageid="seo-1-41" imageName="SEO 1" class="illustrations_image" style="width: 181px;"><defs><style>.cls-1_seo-1-41{fill:none;stroke:#fff;stroke-miterlimit:10;stroke-width:1.5px;}.cls-2_seo-1-41{fill:url(#linear-gradient);}.cls-2_seo-1-41,.cls-3_seo-1-41,.cls-4_seo-1-41,.cls-5_seo-1-41,.cls-6_seo-1-41,.cls-7_seo-1-41,.cls-8_seo-1-41,.cls-9_seo-1-41,.cls-10_seo-1-41,.cls-11_seo-1-41,.cls-12_seo-1-41,.cls-13_seo-1-41,.cls-14_seo-1-41,.cls-15_seo-1-41{stroke-width:0px;}.cls-3_seo-1-41{isolation:isolate;opacity:.18;}.cls-3_seo-1-41,.cls-15_seo-1-41{fill:#68e1fd;}.cls-4_seo-1-41{fill:url(#linear-gradient-4-seo-1-41);}.cls-5_seo-1-41{fill:url(#linear-gradient-2-seo-1-41);}.cls-6_seo-1-41{fill:url(#linear-gradient-3-seo-1-41);}.cls-7_seo-1-41{fill:url(#linear-gradient-8-seo-1-41);}.cls-8_seo-1-41{fill:url(#linear-gradient-9-seo-1-41);}.cls-9_seo-1-41{fill:url(#linear-gradient-7-seo-1-41);}.cls-10_seo-1-41{fill:url(#linear-gradient-5-seo-1-41);}.cls-11_seo-1-41{fill:url(#linear-gradient-6-seo-1-41);}.cls-12_seo-1-41{fill:#f9c6d6;}.cls-13_seo-1-41{fill:#231f20;}.cls-14_seo-1-41{fill:#fff;}</style><linearGradient id="linear-gradient-seo-1-41" x1="-127.85" y1="-47.79" x2="-143.29" y2="243.8" gradientTransform="translate(370.39 323.75)" gradientUnits="userSpaceOnUse"><stop offset="0" stop-color="#231f20"/><stop offset=".08" stop-color="#231f20" stop-opacity=".69"/><stop offset=".21" stop-color="#231f20" stop-opacity=".32"/><stop offset="1" stop-color="#231f20" stop-opacity="0"/></linearGradient><linearGradient id="linear-gradient-2-seo-1-41" x1="-427.38" y1="-38.03" x2="-415.11" y2="127.41" gradientTransform="translate(-180.38 323.75) rotate(-180) scale(1 -1)" xlink:href="#linear-gradient-seo-1-41"/><linearGradient id="linear-gradient-3-seo-1-41" x1="-325.04" y1="-264.99" x2="-87.57" y2="-77.61" xlink:href="#linear-gradient-seo-1-41"/><linearGradient id="linear-gradient-4-seo-1-41" x1="-256.87" y1="-288.57" x2="-251.81" y2="-175.46" xlink:href="#linear-gradient-seo-1-41"/><linearGradient id="linear-gradient-5-seo-1-41" x1="-272.63" y1="-265.52" x2="-268.35" y2="-170.17" xlink:href="#linear-gradient-seo-1-41"/><linearGradient id="linear-gradient-6-seo-1-41" x1="-256.87" y1="-256.49" x2="-251.81" y2="-143.39" xlink:href="#linear-gradient-seo-1-41"/><linearGradient id="linear-gradient-7-seo-1-41" x1="-272.63" y1="-233.44" x2="-268.35" y2="-138.1" xlink:href="#linear-gradient-seo-1-41"/><linearGradient id="linear-gradient-8-seo-1-41" x1="118.28" y1="-159.92" x2="-178.83" y2="3.82" xlink:href="#linear-gradient-seo-1-41"/><linearGradient id="linear-gradient-9-seo-1-41" x1="-318.03" y1="-96.5" x2="-60.89" y2="53.18" xlink:href="#linear-gradient-seo-1-41"/></defs><g id="background_seo-1-41"><path class="cls-3_seo-1-41 targetColor" d="M172.12,34.63c-26.98,14.48-46.71,40.93-55.46,70.28-5.17,17.37-6.79,35.69-12.7,52.82-16.77,48.73-65.17,80.43-85.81,127.67-11.5,26.31-13.49,56.96-3.81,83.94,9.68,26.98,31.33,49.87,58.46,59.4,16.49,5.85,34.47,6.71,52,7.28,32.98,1.05,66.07,1.17,98.48-4.68,15.42-2.79,30.62-6.91,46.21-8.72,30.13-3.48,60.88,1.81,90.82-3,20.85-3.39,40.62-11.6,59.49-21.07,14.18-7.1,28.12-14.99,39.8-25.77,30.92-28.37,42.39-74.36,34.07-115.5-8.32-41.14-34.47-77.27-67.28-103.35-14.45-11.47-30.19-21.19-45.34-31.72-19.51-13.56-38.04-28.47-55.46-44.62C283.8,38.88,230,3.51,172.12,34.63Z" style="fill: rgb(104, 225, 253);"/><path class="cls-2_seo-1-41" d="M93.86,372.67l-1.92-.12c-6.28-.49-10.49,2.71-15.78,5.82-6.3,3.7-13.49,5.74-19.62,9.62-.91.58-1.93,1.66-1.38,2.59.37.61,1.23.7,1.96.72,15.51.3,30.98.36,46.47.36h281.04c10.25-.04,20.48-.74,30.64-2.08,1.65-.05,2.96-1.43,2.91-3.09-.04-1.37-1-2.53-2.34-2.83-8.71-3-17.47-5.8-26.26-8.41-22.35-6.71-47.44-3.78-70.45-3.3-24.22.52-48.49,1.12-72.7-.43-17.43-1.12-31.12,0-48.61.57-12.76.37-25.38,1.5-38.18,1.3l-45.46-.55c-6.77.04-13.59.24-20.32-.16Z"/></g><g id="monitor_seo-1-41"><polygon class="cls-15_seo-1-41 targetColor" points="183.33 374.38 297.53 374.38 277.32 301.74 200.37 301.74 183.33 374.38" style="fill: rgb(104, 225, 253);"/><polygon class="cls-5_seo-1-41" points="183.33 374.38 297.53 374.38 277.32 301.74 200.37 301.74 183.33 374.38"/><path class="cls-15_seo-1-41 targetColor" d="M411.49,107.67v187.36c-.07,11.28-9.25,20.39-20.53,20.35H95.04c-11.3,0-20.47-9.16-20.49-20.46V107.67c0-11.32,9.17-20.49,20.49-20.49h295.91c11.32-.02,20.51,9.13,20.53,20.44h0v.05Z" style="fill: rgb(104, 225, 253);"/><path class="cls-13_seo-1-41" d="M411.49,107.68v164.23H74.55V107.68c0-11.32,9.17-20.5,20.49-20.5h295.91c11.33,0,20.53,9.17,20.53,20.5h0Z"/><path class="cls-14_seo-1-41" d="M406.42,111.53v154.89H79.67V111.53c.09-10.89,8.96-19.65,19.85-19.62h287.02c10.9-.06,19.8,8.72,19.89,19.62Z"/><path class="cls-3_seo-1-41 targetColor" d="M406.42,111.53v154.89H79.67V111.53c.09-10.89,8.96-19.65,19.85-19.62h287.02c10.9-.06,19.8,8.72,19.89,19.62Z" style="fill: rgb(104, 225, 253);"/><path class="cls-15_seo-1-41 targetColor" d="M171.7,164.88h155.88c5.79,0,10.49,4.7,10.49,10.49h0c0,5.79-4.7,10.49-10.49,10.49h-155.88v-20.98Z" style="fill: rgb(104, 225, 253);"/><rect class="cls-14_seo-1-41" x="171.7" y="164.88" width="125.85" height="20.89"/><circle class="cls-1_seo-1-41" cx="316.2" cy="174.14" r="5.04"/><path class="cls-1_seo-1-41" d="M320.82,182.34l-2.07-3.85"/></g><g id="data_2_seo-1-41"><path class="cls-6_seo-1-41" d="M180.6,87.18v64.03c0,4.92-3.99,8.9-8.9,8.9h-97.14v-52.46c.02-11.3,9.19-20.46,20.49-20.47h85.56Z"/><rect class="cls-15_seo-1-41 targetColor" x="57.71" y="57.48" width="116.15" height="95.03" rx="8.92" ry="8.92" style="fill: rgb(104, 225, 253);"/><rect class="cls-4_seo-1-41" x="72.94" y="77.16" width="85.17" height="5.35"/><rect class="cls-10_seo-1-41" x="72.94" y="93.2" width="53.03" height="5.35"/><rect class="cls-11_seo-1-41" x="72.94" y="109.24" width="85.17" height="5.35"/><rect class="cls-9_seo-1-41" x="72.94" y="125.28" width="53.03" height="5.35"/></g><g id="data_1_seo-1-41"><rect class="cls-7_seo-1-41" x="266.28" y="206.88" width="116.15" height="95.03" rx="13.67" ry="13.67"/><rect class="cls-14_seo-1-41" x="260.66" y="201.32" width="116.15" height="95.03" rx="13.67" ry="13.67"/><polygon class="cls-15_seo-1-41 targetColor" points="360.33 281.9 277.71 281.9 277.71 220.91 279.21 220.91 279.21 280.4 360.33 280.4 360.33 281.9" style="fill: rgb(104, 225, 253);"/><rect class="cls-15_seo-1-41 targetColor" x="291.55" y="251.35" width="9.71" height="29.05" style="fill: rgb(104, 225, 253);"/><rect class="cls-15_seo-1-41 targetColor" x="311.36" y="238.68" width="9.71" height="41.71" style="fill: rgb(104, 225, 253);"/><rect class="cls-15_seo-1-41 targetColor" x="333.11" y="229.66" width="9.71" height="50.74" style="fill: rgb(104, 225, 253);"/></g><g id="character_seo-1-41"><path class="cls-8_seo-1-41" d="M151.61,315.38c2.74-12.71-10.3-23.91-9.8-36.9.21-5.71,3-10.96,5.79-15.96.16-.39.45-.72.82-.93.57-.24,1.2.12,1.75.39,5.17,2.65,11.75-1.11,14.24-6.36s2.02-11.35,1.5-17.12c-5.61,4.52-13.2,5.73-19.94,3.18-3.28-1.27-6.39-3.46-9.91-3.45s-6.76,2.4-9.32,4.96c-8.8,8.8-13.74,20.88-16.01,33.13s-1.74,26.43-1.5,38.88l42.37.18Z"/><path class="cls-12_seo-1-41" d="M136.98,373.64c-.09,1.02.26,2.04.96,2.79.37.26.8.43,1.24.51,1.18.23,2.39.31,3.6.22,2.25-.15,4.48-.48,6.69-.96l3.78-.72c.48-.02.94-.24,1.24-.61.24-.5.16-1.09-.21-1.5-.65-.75-1.49-1.3-2.43-1.59-2.27-.92-4.61-1.67-7-2.22-.4-.06-.77-.21-1.09-.45-.48-.42-.57-1.12-.9-1.66-.66-.98-1.86-1.44-3-1.15-1.09.21-2.67.94-3,2.14-.16,1.73-.11,3.48.12,5.2Z"/><path class="cls-13_seo-1-41" d="M149.21,370.03c-.79-.21-1.62.03-2.19.61-.63.91.18,2.38-.55,3.21-.46.39-1.06.57-1.66.49h-4.17c-1.12.05-2.24-.04-3.34-.27-.25-.1-.52-.14-.78-.09-.38.11-.66.43-.7.82-.04.38.02.77.16,1.12.27.76.66,1.47,1.15,2.11.14.19.31.35.51.46.24.1.49.14.75.12,2.47,0,4.95.09,7.49-.1,1.72-.12,3.43-.36,5.14-.51,2.48,0,4.95-.42,7.28-1.26.61-.21,1.12-.66,1.39-1.24.13-.52.01-1.07-.31-1.5-.33-.44-.75-.81-1.23-1.08-1.35-.87-2.83-1.51-4.39-1.9-1.5-.43-3.02-.77-4.56-1Z"/><path class="cls-12_seo-1-41" d="M91.18,369.03v.31c.15,3.33,4.5,3.42,6.94,3.3,2.24-.16,4.47-.48,6.67-.96l3.79-.72c.48-.03.93-.25,1.24-.61.23-.5.15-1.08-.21-1.5-.65-.75-1.49-1.3-2.44-1.59-2.04-.78-4.12-1.47-6.24-2.04-1.87-.55-.3-3.13-.09-4.5.08-.27.08-.56,0-.84-.21-.3-.53-.5-.88-.58-1.09-.38-2.23-.58-3.39-.61-.23-.03-.47.02-.67.13-.18.14-.31.33-.39.54l-3.61,7.72c-.36.6-.6,1.26-.72,1.95Z"/><path class="cls-13_seo-1-41" d="M92.77,271.01s-2.7,15.2,2.88,26.59c2.92,6.13,6.19,12.08,9.79,17.84,0,0-11.6,12.55-11.6,28.37s-.3,16.49-.3,16.49l6.97,3.52,17.39-48.44s1.05-6.86,0-9.19-9.97-28.81-9.97-28.81l-15.15-6.37Z"/><path class="cls-13_seo-1-41" d="M155.78,209.39c-3.6,0-7.49-3.84-9.74-9.76-2.52-6.85-1.42-13.13,2.55-14.6s8.87,2.61,11.41,9.46h0c2.53,6.86,1.5,13.15-2.53,14.61-.54.19-1.11.29-1.68.28ZM150.26,187.98c-.19,0-.39.03-.57.09-1.86.69-2.52,5.31-.61,10.49s5.4,8.23,7.25,7.49,2.52-5.31.63-10.49h0c-1.72-4.59-4.77-7.58-6.7-7.58Z"/><path class="cls-13_seo-1-41" d="M170.08,224.46c-.49,0-.96-.22-1.27-.6l-11.99-15.11c-.55-.7-.44-1.72.26-2.27,0,0,0,0,0,0h0c.69-.55,1.7-.43,2.25.25h0l11.99,15.11c.55.69.44,1.7-.25,2.25-.29.23-.64.36-1.01.35h.02Z"/><path class="cls-12_seo-1-41" d="M148.87,202.06c.19,1.59.25,3.18.19,4.78-.32,1.23-1.07,2.29-2.13,3-1.05.71-2.23,1.22-3.46,1.5-1,.08-1.74.95-1.66,1.95.01.13.04.26.07.38v4.09c.05.43-.06.86-.3,1.21-.19.19-.44.33-.7.39-2.05.48-4.14-.58-4.98-2.5-.45-.9-.96-1.78-1.5-2.64-.53-1.11-.85-2.3-.94-3.52-.4-3.92.34-7.88,2.13-11.39,1.11-2.25,2.73-4.2,4.74-5.7,1.59-1.14,4.72-2.86,6.36-.88.81.99.79,2.44,1.5,3.48.55.75,1.5,1.26,1.66,2.17s-.45,1.5-.73,2.32c-.15.43-.24.89-.24,1.35Z"/><path class="cls-12_seo-1-41" d="M160.88,210.32v-.24c.02-.94.36-1.84.97-2.55.65-.71,1.71-.86,2.53-.36.33.22.55.57.91.73s1.14,0,1.5.45.28.78.46,1.17.7.72,1.05,1.09c1.69,1.83-.18,5.1-.85,6.95-1.02,2.79-1.99,5.59-2.85,8.44-.99.15-2.01-.05-2.88-.55-.32-.19-.6-.43-.84-.72-.55-1-.67-2.18-.33-3.27.21-.82.27-1.67.18-2.52-.24-.91-.54-1.81-.9-2.68-.25-.73-.46-1.66.12-2.19.19-.18.48-.28.64-.49.14-.22.21-.47.21-.73.09-.9.02-1.68.06-2.53Z"/><path class="cls-13_seo-1-41" d="M127.82,277.58l16.86,37.8-.7,53.76-7.73-.57s-13.24-30.58-4.72-49.46c0,0-20.44-17.48-28-27.43-9.28-12.25-7.18-22.48-7.18-22.48l31.48,8.38Z"/><path class="cls-14_seo-1-41" d="M135.63,212.23c2.08.47,4.09,1.18,6,2.13,6.48,3,6.76,8.09,8.99,14.22,1.44,3.9,3.08,7.72,4.92,11.45l3.09-18.47,8.66,3.49s.85,27.28-5.5,30.94c-4.09,2.37-9.82-.39-13.49-2.29-1.35-.69-3.58-2.77-5.04-3-2.77-.37-3,2.91-5.4,4.84-1.6.93-3.14,1.96-4.6,3.1-1.37,1.6-2.39,3.46-3,5.47-.69,2.48-.9,5.06-.6,7.61.12,1.75.24,3.75-1,4.96-.71.61-1.59,1.01-2.52,1.12-3.08.44-6.21.41-9.28-.1-6.09-.48-12.11-1.56-17.99-3.22-2.12-.67-4.2-1.48-6.21-2.44-.44-.18-.84-.45-1.18-.78-.37-.43-.62-.94-.72-1.5-.79-3.72,1.89-7.16,3.24-10.72.9-2.4,1.2-4.99,2.02-7.42.9-2.71,2.58-4.5,4.08-6.89,1.21-1.89,1.89-4.12,3.1-6.07,3.24-5,6.86-9.75,10.81-14.21,2.32-2.87,4.9-5.53,7.7-7.93,3.21-2.82,7.32-4.41,11.59-4.5.78,0,1.56.07,2.32.19Z"/><path class="cls-13_seo-1-41" d="M128.84,180.48c-5.08.28-9.47,3.64-11.08,8.47-.67,1.74-.4,3.93-.67,5.8-.12,2.12-.99,4.12-2.44,5.67-1.8,1.65-4.5,1.9-6.79,2.5-3.67.93-7.33,3.12-8.68,6.67s-.21,7.18-.81,10.73c-.49,2.96-2.1,5.61-4.5,7.42-1.65,1.21-3.61,1.98-5.32,3.13-6.19,4.66-7.43,13.45-2.78,19.65,0,0,0,0,0,0l.21.27c.63.64,1.22,1.32,1.75,2.04.49.84.93,1.71,1.33,2.59,2.38,4.15,6.92,6.58,11.69,6.28,4.72-.39,9.04-2.82,11.83-6.66,2.62-3.49,4.06-7.87,7.24-10.85,2.22-1.73,4.55-3.32,6.98-4.74,3.79-2.7,6.74-7.03,6.52-11.68-.21-3.87-3.46-8.08-.45-11.51,1.12-1.11,2.37-2.08,3.72-2.91,1.36-.83,2.46-2.01,3.21-3.42,1.5-3.24-.67-7.33,1.05-10.49,1.27-2.26,4.12-3.1,6-4.98,2.04-2.3,2.53-5.59,1.24-8.38-1.33-2.74-3.82-4.74-6.79-5.44-2.17-.45-4.4-.6-6.61-.43l-3.78.12c-.7-.05-1.4,0-2.08.13Z"/><path class="cls-13_seo-1-41" d="M103.81,364.84c-.78-.21-1.62.02-2.19.6-.63.93.18,2.38-.55,3.22-.47.38-1.08.55-1.68.48h-4.21c-1.12.05-2.24-.04-3.34-.27-.25-.09-.53-.13-.79-.1-.37.12-.64.45-.69.84-.04.38.01.76.16,1.11.27.77.66,1.48,1.15,2.13.13.19.31.35.51.46.24.09.49.13.75.12,2.47,0,4.95.09,7.49-.1,1.71-.13,3.42-.37,5.14-.51,2.48,0,4.95-.43,7.28-1.26.61-.21,1.11-.67,1.38-1.26.13-.52.02-1.07-.3-1.5-.33-.44-.75-.8-1.23-1.06-1.35-.87-2.83-1.51-4.39-1.9-1.47-.43-2.98-.76-4.5-.99Z"/></g></svg>