<svg version="1.1" id="Layer_1" xmlns="http://www.w3.org/2000/svg" xmlns:xlink="http://www.w3.org/1999/xlink" x="0px" y="0px" viewBox="0 0 500 500" style="width: 181px;" xml:space="preserve" data-imageid="marketing-campaign-65" imageName="Marketing Campaign" class="illustrations_image">
<style type="text/css">
	.st0_marketing-campaign-65{fill:#96C168;}
	.st1_marketing-campaign-65{fill:url(#SVGID_1_);}
	.st2_marketing-campaign-65{fill:#68E1FD;}
	.st3_marketing-campaign-65{fill:#FFFFFF;}
	.st4_marketing-campaign-65{fill:#053855;}
	.st5_marketing-campaign-65{fill:#FFA197;}
	.st6_marketing-campaign-65{opacity:0.1;fill:#053855;enable-background:new    ;}
	.st7_marketing-campaign-65{fill:none;}
	.st8_marketing-campaign-65{opacity:0.5;}
	.st9_marketing-campaign-65{opacity:0.53;fill:#FFFFFF;enable-background:new    ;}
	.st10_marketing-campaign-65{fill:#FFC543;}
	.st11_marketing-campaign-65{fill:#FAD374;}
	.st12_marketing-campaign-65{fill:#EB773A;}
	.st13_marketing-campaign-65{fill:#FFAE46;}
	.st14_marketing-campaign-65{opacity:0.61;fill:#606060;enable-background:new    ;}
	.st15_marketing-campaign-65{opacity:0.29;fill:#606060;enable-background:new    ;}
</style>
<g id="background_marketing-campaign-65">
	<path class="st0_marketing-campaign-65" d="M241.9,427.9L20.3,297c-7.1-4-13.1-10.5-6.2-14.7l222.4-128.2c3.3-2.1,8.4-3.4,11.8-1.4l232.6,135&#10;&#9;&#9;c7.1,4.1,8.3,15.5,1.3,19.6l-211,120.5C262.1,433,251,433,241.9,427.9z"/>
	
		<linearGradient id="SVGID_1_-marketing-campaign-65" gradientUnits="userSpaceOnUse" x1="347.5034" y1="115.1528" x2="298.8734" y2="204.3828" gradientTransform="matrix(1 0 0 -1 0 502)">
		<stop offset="1.000000e-02" style="stop-color:#96C168"/>
		<stop offset="0.99" style="stop-color:#606060"/>
	</linearGradient>
	<path class="st1_marketing-campaign-65" d="M355,380c19.7-11.9,39.4-22.5,59.3-34c-19.6-13.2-29.5-17.6-44.5-26.9l-113,64.7l42.4,27.9&#10;&#9;&#9;C317.8,402,336.9,390.9,355,380z"/>
</g>
<g id="laptop_marketing-campaign-65">
	<polyline class="st2_marketing-campaign-65 targetColor" points="109.2,294.3 109.2,299.2 111.7,302.2 &#9;" style="fill: rgb(104, 225, 253);"/>
	<path class="st2_marketing-campaign-65 targetColor" d="M206.9,235.1L112,294c-2.8,1.7-3.6,5.3-1.9,8.1c0.5,0.8,1.2,1.5,2.1,2l144.1,81.5c4.1,2.3,9.1,2.3,13.2-0.1&#10;&#9;&#9;l94.5-55.6c6.9-5.6,6.4-16.3-0.1-16.7l-143.3-78.3C216.4,232.4,211.1,232.5,206.9,235.1z" style="fill: rgb(104, 225, 253);"/>
	<path class="st3_marketing-campaign-65" d="M206.9,231.1L112,289.9c-2.8,1.7-3.6,5.3-1.9,8.1c0.5,0.8,1.2,1.5,2.1,2l144.1,81.5c4.1,2.3,9.1,2.3,13.2-0.1&#10;&#9;&#9;l94.5-55.6c3.5-2,4.7-6.5,2.6-10c-0.6-1.1-1.6-2-2.7-2.6l-143.3-82.4C216.4,228.4,211.1,228.4,206.9,231.1z"/>
	<path class="st4_marketing-campaign-65" d="M210.8,223c0,0,39.4-127.2,39.2-127.2s1.2-5.7,8.3-2.5l151.3,89.1c0,0,7.3,3,5.9,9.8S377,316.7,377,316.7&#10;&#9;&#9;c-1.6,2.3-4.5,3.3-7.1,2.5c-4.6-1.4-155.4-89-155.4-89S209.3,228.2,210.8,223z"/>
	<polygon class="st5_marketing-campaign-65" points="252.5,105 407.5,195.3 375.3,303.2 218.4,215.6 &#9;"/>
	<path class="st2_marketing-campaign-65 targetColor" d="M201.1,244.5l-34.7,21.6c-2,1.2-2.6,3.8-1.4,5.8c0.4,0.6,0.9,1.1,1.5,1.4l124.6,71c3.8,2.2,8.5,2.1,12.2-0.1&#10;&#9;&#9;c8-4.7,21.8-13.1,30.2-18.2c2.4-1.5,3.2-4.6,1.7-7c-0.4-0.7-1.1-1.3-1.8-1.8c-25.2-14.7-107.4-62.5-125.4-72.9&#10;&#9;&#9;C205.9,243.1,203.2,243.2,201.1,244.5z" style="fill: rgb(104, 225, 253);"/>
	<path class="st2_marketing-campaign-65 targetColor" d="M203,303.2l43.5,24.5c2.1,1.2,2.8,3.8,1.7,5.9c-0.4,0.7-0.9,1.2-1.6,1.6l-25.6,15c-1.8,1-4,1-5.8,0l-44.5-25.4&#10;&#9;&#9;c-1.7-1-2.4-3.2-1.4-5c0.3-0.6,0.8-1,1.4-1.4l26.6-15.3C199.1,302.2,201.2,302.2,203,303.2z" style="fill: rgb(104, 225, 253);"/>
	<path class="st6_marketing-campaign-65" d="M201.1,244.5l-34.7,21.6c-2,1.2-2.6,3.8-1.4,5.8c0.4,0.6,0.9,1.1,1.5,1.4l124.6,71c3.8,2.2,8.5,2.1,12.2-0.1&#10;&#9;&#9;c8-4.7,21.8-13.1,30.2-18.2c2.4-1.5,3.2-4.6,1.7-7c-0.4-0.7-1.1-1.3-1.8-1.8c-25.2-14.7-107.4-62.5-125.4-72.9&#10;&#9;&#9;C205.9,243.1,203.2,243.2,201.1,244.5z"/>
	<path class="st6_marketing-campaign-65" d="M203,303.2l43.5,24.5c2.1,1.2,2.8,3.8,1.7,5.9c-0.4,0.7-0.9,1.2-1.6,1.6l-25.6,15c-1.8,1-4,1-5.8,0l-44.5-25.4&#10;&#9;&#9;c-1.7-1-2.4-3.2-1.4-5c0.3-0.6,0.8-1,1.4-1.4l26.6-15.3C199.1,302.2,201.2,302.2,203,303.2z"/>
	<line class="st7_marketing-campaign-65" x1="285.3" y1="165.8" x2="373.3" y2="217.5"/>
	<g class="st8_marketing-campaign-65">
		<path class="st3_marketing-campaign-65" d="M356.1,201.2l-82.5-48.5c-8.7-5.1-14,10.2-4.4,15.5c29.3,17.2,57.9,33.7,86.9,50.7V201.2z"/>
	</g>
	<path class="st3_marketing-campaign-65" d="M374.2,211.8l-18.1-10.6l-5.5,14.6l18.3,10.7C377.6,231.6,382.8,216.9,374.2,211.8z"/>
	<path class="st4_marketing-campaign-65" d="M365,219.9c-1.9,0-3.8-1.7-4.6-4.1c-0.9-2.9,0.1-5.8,2.2-6.4s4.6,1.1,5.5,4c0.4,1.3,0.5,2.7,0.1,4&#10;&#9;&#9;c-0.3,1.2-1.2,2.1-2.3,2.5C365.6,219.9,365.3,219.9,365,219.9z M363.6,210.4c-0.2,0-0.4,0-0.6,0.1c-1.5,0.5-2.1,2.6-1.4,4.9&#10;&#9;&#9;s2.5,3.6,4,3.2c0.7-0.3,1.3-0.9,1.5-1.7c0.3-1,0.3-2.2-0.1-3.2C366.4,211.8,364.9,210.4,363.6,210.4L363.6,210.4z"/>
	
		<rect x="368.6" y="217.5" transform="matrix(0.7242 -0.6896 0.6896 0.7242 -50.4842 315.5384)" class="st4_marketing-campaign-65" width="1.2" height="6.8"/>
	<polygon class="st9_marketing-campaign-65" points="243.1,169.7 232.4,204.1 256.6,217.5 268,184.2 &#9;"/>
	<polygon class="st9_marketing-campaign-65" points="275.9,189 265.2,223.5 289.4,236.8 300.8,203.6 &#9;"/>
	<polygon class="st9_marketing-campaign-65" points="310.9,209.2 300.3,243.6 324.5,257 335.9,223.8 &#9;"/>
</g>
<g id="rocket_marketing-campaign-65">
	<path class="st10_marketing-campaign-65" d="M219.2,181c0,0-17.6-0.6-12.6-21.6c-1.6,4-4.9,9.1-11.2,9.4s-10-5-11.9-9.2c1.6,5.1,3.2,12.6,0,14.9&#10;&#9;&#9;c-5.1,3.6-12.6,4.7-12.6,4.7s13.6,0.1,13.6,5.4s-2.6,11.6-2.6,11.6s16.1-11.6,23.1,1.6C205,197.8,201.9,182.8,219.2,181z"/>
	<path class="st11_marketing-campaign-65" d="M203.6,178.6c0,0-103.8,24.8-102.6,76.1s45,43,45,43s-47.8,3.9-55.7-30.8S129.1,182.5,203.6,178.6z"/>
	<path class="st12_marketing-campaign-65" d="M210.9,275.1c0,0-42.2,2.7-70,42.3c0,0,29.9,22.1,90.9,5.6"/>
	<path class="st13_marketing-campaign-65" d="M207.9,280.4c0,0-20.4,6.4-28.7,13.8s-19.7,18.3-19.7,18.3s24.6,13.8,55.2,10S235.1,280.9,207.9,280.4z"/>
	<path class="st11_marketing-campaign-65" d="M224.4,282.4c-1.6,1.1-20.3,2.7-28.6,13.6l6.5-1.5c0,0-13.6,7.8-20.1,12.9c0,0,23.9,1.1,23,1.3l-7.7,1.7&#10;&#9;&#9;c0,0,15.5,6.7,30.2,2.1s7.7-27.4,7.7-27.4L224.4,282.4z"/>
	<path class="st2_marketing-campaign-65 targetColor" d="M269.5,302.8c0,0-10.4,15.9-18,17.6s-32.2,7.3-32.2,7.3l-1.2-5.4c0,0,22.9-16.8,29.6-25.7&#10;&#9;&#9;S269.5,302.8,269.5,302.8z" style="fill: rgb(104, 225, 253);"/>
	<path class="st14_marketing-campaign-65" d="M269.5,302.8c0,0-10.4,15.9-18,17.6s-32.2,7.3-32.2,7.3l-1.2-5.4c0,0,22.9-16.8,29.6-25.7&#10;&#9;&#9;S269.5,302.8,269.5,302.8z"/>
	<path class="st2_marketing-campaign-65 targetColor" d="M262.2,270.4c0,0-16.2-9.9-23.8-8.2s-32.2,7.3-32.2,7.3l1.2,5.4c0,0,27.9,5.4,37.8,10.5&#10;&#9;&#9;S262.2,270.4,262.2,270.4z" style="fill: rgb(104, 225, 253);"/>
	<path class="st14_marketing-campaign-65" d="M262.2,270.4c0,0-16.2-9.9-23.8-8.2s-32.2,7.3-32.2,7.3l1.2,5.4c0,0,27.9,5.4,37.8,10.5&#10;&#9;&#9;S262.2,270.4,262.2,270.4z"/>
	<path class="st2_marketing-campaign-65 targetColor" d="M426.2,250.5c0,0-104.7-19.4-184,28.1c0,0-16.7,6.9-14.3,16s22.9,12,22.9,12S317.9,316.8,426.2,250.5z" style="fill: rgb(104, 225, 253);"/>
	<path class="st2_marketing-campaign-65 targetColor" d="M242.2,278.6c0,0-11.2-6.8-16.4-5.6s-22.2,5-22.2,5l0.8,3.7c0,0,19.2,3.7,26,7.2S242.2,278.6,242.2,278.6z" style="fill: rgb(104, 225, 253);"/>
	<path class="st2_marketing-campaign-65 targetColor" d="M248,304c0,0-7.2,11-12.4,12.1s-22.2,5-22.2,5l-0.8-3.7c0,0,15.8-11.6,20.4-17.7S248,304,248,304z" style="fill: rgb(104, 225, 253);"/>
	<path class="st15_marketing-campaign-65" d="M242.2,278.6c0,0-11.2-6.8-16.4-5.6s-22.2,5-22.2,5l0.8,3.7c0,0,19.2,3.7,26,7.2S242.2,278.6,242.2,278.6z"/>
	<path class="st15_marketing-campaign-65" d="M248,304c0,0-7.2,11-12.4,12.1s-22.2,5-22.2,5l-0.8-3.7c0,0,15.8-11.6,20.4-17.7S248,304,248,304z"/>
	<path class="st2_marketing-campaign-65 targetColor" d="M372.9,246.6c0,0-7.6,15.8,6.6,29.3l-14.8,6.6c0,0-15.7-21.5-5.4-35.6L372.9,246.6z" style="fill: rgb(104, 225, 253);"/>
	<path class="st2_marketing-campaign-65 targetColor" d="M295.7,256c0,0-12.1,27,9.6,46.1l-24.5,4.3c0,0-22.7-21.6-6.8-43.3L295.7,256z" style="fill: rgb(104, 225, 253);"/>
	<circle class="st2_marketing-campaign-65 targetColor" cx="342" cy="268.7" r="4.2" style="fill: rgb(104, 225, 253);"/>
	<circle class="st2_marketing-campaign-65 targetColor" cx="318.1" cy="274" r="10.9" style="fill: rgb(104, 225, 253);"/>
	<path class="st14_marketing-campaign-65" d="M372.9,246.6c0,0-7.6,15.8,6.6,29.3l-14.8,6.6c0,0-15.7-21.5-5.4-35.6L372.9,246.6z"/>
	<path class="st14_marketing-campaign-65" d="M295.7,256c0,0-12.1,27,9.6,46.1l-24.5,4.3c0,0-22.7-21.6-6.8-43.3L295.7,256z"/>
	<circle class="st14_marketing-campaign-65" cx="342" cy="268.7" r="4.2"/>
	<circle class="st14_marketing-campaign-65" cx="318.1" cy="274" r="10.9"/>
</g>
</svg>